<svg width="80" height="80" viewBox="0 0 80 80" fill="none" xmlns="http://www.w3.org/2000/svg">
<circle cx="39.9171" cy="39.9171" r="39.9171" fill="white"/>
<path d="M36.2529 62.3971C36.3102 62.4877 36.41 62.5425 36.5171 62.5425C36.6338 62.5425 36.7497 62.5426 36.8642 62.5437C36.9305 62.5444 36.9953 62.5239 37.0493 62.4853C37.2964 62.3086 37.5422 62.1318 37.7877 61.9553C38.2875 61.596 38.7856 61.2379 39.2884 60.8838L39.2886 60.8836C39.8381 60.496 40.3908 60.1133 40.9495 59.7265C41.2009 59.5524 41.4535 59.3775 41.7076 59.2009C41.8493 59.1025 41.8844 58.9078 41.7861 58.766C40.6474 57.1231 39.5334 55.5156 38.4077 53.8904C38.3131 53.7538 38.1281 53.715 37.9866 53.8022C37.4155 54.1538 36.8848 54.4796 36.3405 54.8138L36.3042 54.8361C36.2309 54.881 36.1794 54.9542 36.1617 55.0383C36.1441 55.1224 36.1618 55.21 36.2107 55.2807C36.4843 55.6756 36.7476 56.0552 37.0141 56.4393C37.1046 56.5698 37.1955 56.7008 37.2873 56.8332C36.1055 56.648 35.0112 56.3425 33.9449 55.9297L33.9448 55.9296C31.0522 54.8112 28.6374 53.0326 26.6699 50.589C26.6176 50.5241 26.5417 50.4828 26.4588 50.4741C26.376 50.4654 26.2931 50.4902 26.2286 50.5428C25.7245 50.9541 25.2416 51.3477 24.7364 51.7589C24.6039 51.8667 24.5825 52.0608 24.6882 52.195C26.3049 54.2466 28.2364 55.8564 30.4749 57.0932L30.475 57.0933C32.4894 58.2057 34.6366 58.9219 36.9616 59.3273C36.4019 59.7275 35.8843 60.0982 35.3749 60.4632C35.2401 60.5598 35.2041 60.7449 35.293 60.8849C35.4327 61.1052 35.5677 61.3176 35.6997 61.5255C35.888 61.8218 36.0706 62.1091 36.2529 62.3971Z" fill="#272B3F" stroke="#272B3F" stroke-width="0.625498" stroke-linejoin="round"/>
<path d="M17.2917 36.3686C17.2917 36.4328 17.3115 36.4955 17.3483 36.5481L17.3521 36.5534C18.4754 38.1569 19.5988 39.7603 20.7362 41.3848C20.8349 41.5258 21.029 41.5606 21.1705 41.4626C22.1436 40.7887 23.1117 40.1186 24.083 39.4463C24.7327 38.9966 25.3839 38.5459 26.039 38.0923C26.1076 38.0448 26.1544 37.9719 26.169 37.8897C26.1835 37.8075 26.1646 37.723 26.1165 37.6548C25.9567 37.4285 25.8005 37.2074 25.646 36.9888C25.4263 36.6778 25.21 36.3717 24.992 36.0626C24.893 35.9223 24.6994 35.888 24.5582 35.9858C24.0239 36.3562 23.519 36.7061 22.9812 37.0785C23.688 32.6344 25.8008 29.0888 29.2425 26.2438C29.375 26.1343 29.3943 25.9384 29.2857 25.8052C29.0125 25.4699 28.7493 25.1468 28.4644 24.7971C28.3229 24.6234 28.1761 24.4432 28.0201 24.2517C27.9638 24.1825 27.8806 24.1407 27.7914 24.1368C27.7023 24.1328 27.6158 24.1671 27.5535 24.2311C27.2746 24.5176 26.9891 24.8005 26.7033 25.0838C26.081 25.7006 25.4571 26.3189 24.8964 26.9789C22.5312 29.7616 21.0866 32.9653 20.4976 36.6282C20.1517 36.1419 19.8269 35.6859 19.506 35.2354L19.3728 35.0485C19.2734 34.909 19.0803 34.8753 18.9397 34.973L18.7609 35.0972C18.3209 35.4028 17.9094 35.6886 17.4988 35.9732C17.3691 36.0631 17.2917 36.2108 17.2917 36.3686Z" fill="#272B3F" stroke="#272B3F" stroke-width="0.625498" stroke-linejoin="round"/>
<path d="M48.5058 44.4333C49.1604 45.2113 49.8373 46.015 50.4871 46.7871C49.3895 47.8894 48.3166 48.9658 47.2073 50.0787C46.4423 49.4359 45.6397 48.759 44.8805 48.1209C44.2154 48.3735 43.5832 48.5992 42.9674 48.8624C42.8511 48.9118 42.7442 49.1104 42.7289 49.2502C42.6278 50.1797 42.5526 51.1128 42.4668 52.0717C40.9403 52.0717 39.4373 52.0717 37.8756 52.0717C37.8051 51.3173 37.6899 50.5511 37.677 49.7837C37.6664 49.1715 37.5254 48.7837 36.8508 48.6438C36.4019 48.551 35.9883 48.2925 35.503 48.0833C34.7321 48.7331 33.9295 49.4112 33.1445 50.0728C32.0586 48.9705 30.9834 47.88 29.8764 46.7577C30.4969 46.0209 31.1738 45.2171 31.8177 44.4521C31.5627 43.7705 31.3359 43.123 31.0727 42.4908C31.0222 42.3698 30.8389 42.2417 30.7049 42.2264C29.8611 42.1324 29.0115 42.0783 28.1678 41.9843C28.0444 41.9702 27.8387 41.8139 27.8376 41.7211C27.8164 40.2874 27.8223 38.8526 27.8223 37.3778C28.5767 37.3061 29.3006 37.2368 30.0245 37.1686C30.0832 37.1628 30.142 37.1557 30.1996 37.1604C30.7789 37.2027 31.1608 37.0147 31.2619 36.3742C31.3077 36.0793 31.4405 35.7726 31.6133 35.5281C31.8941 35.1321 31.766 34.8689 31.4805 34.5528C30.9105 33.9241 30.3782 33.2637 29.8623 32.6538C30.9646 31.5527 32.0469 30.4704 33.155 29.3622C33.7896 29.8969 34.4829 30.4586 35.1469 31.052C35.4101 31.2871 35.6087 31.3411 35.9378 31.1578C36.3432 30.9322 36.7921 30.7759 37.2351 30.6349C37.5007 30.5503 37.6065 30.4198 37.6264 30.1484C37.6946 29.2294 37.7816 28.3116 37.8638 27.3574C39.3938 27.3574 40.9074 27.3574 42.4668 27.3574C42.5385 28.1859 42.6372 29.012 42.6701 29.8417C42.6901 30.327 42.8264 30.6255 43.3423 30.723C43.6384 30.7794 43.9475 30.8922 44.1943 31.0626C44.649 31.3752 44.9734 31.2894 45.3647 30.9287C45.9769 30.3646 46.6515 29.8663 47.2766 29.3575C48.3625 30.4574 49.4377 31.5456 50.5482 32.669C49.9712 33.3224 49.3414 34.0522 48.6903 34.762C48.5105 34.9582 48.5117 35.098 48.6234 35.3295C48.8513 35.8019 49.0135 36.3061 49.2368 36.782C49.3014 36.9183 49.4718 37.0793 49.6093 37.0946C50.5835 37.2039 51.56 37.2791 52.5683 37.3672C52.5683 38.8984 52.5683 40.412 52.5683 41.9691C51.7163 42.0407 50.8749 42.1312 50.03 42.1735C49.5494 42.1982 49.2356 42.291 49.1157 42.8528C49.0076 43.3839 48.7268 43.8834 48.5058 44.4333ZM40.1083 35.7655C37.9602 35.7761 36.161 37.5929 36.1787 39.7351C36.1951 41.8668 37.986 43.6495 40.1166 43.6554C42.26 43.6613 44.0721 41.8515 44.0685 39.7057C44.065 37.5588 42.2529 35.7549 40.1083 35.7655Z" fill="#272B3F"/>
<path d="M52.1708 55.1006C52.2786 55.2326 52.4724 55.2539 52.6064 55.1486C53.9605 54.0837 55.1198 52.8752 56.122 51.516C57.1365 50.1429 57.9461 48.6595 58.5747 47.0753L58.5747 47.0753C59.1074 45.7323 59.4729 44.3486 59.7346 42.8733C59.8604 43.0486 59.9839 43.2209 60.1061 43.3913C60.3717 43.7617 60.6308 44.1231 60.8926 44.4878C60.9921 44.6263 61.1842 44.6596 61.3245 44.5626C61.5488 44.4076 61.7671 44.257 61.9834 44.1077C62.2614 43.9158 62.5363 43.7262 62.817 43.532C62.8852 43.4848 62.9319 43.4124 62.9468 43.3308C62.9616 43.2492 62.9435 43.165 62.8962 43.0968C61.7634 41.4598 60.6482 39.8487 59.52 38.2199C59.4728 38.1517 59.4004 38.105 59.3188 38.0902C59.2372 38.0754 59.153 38.0936 59.0848 38.1409C58.5104 38.5388 57.9395 38.9343 57.3699 39.329C56.3162 40.0592 55.2668 40.7863 54.2081 41.5193C54.1395 41.5668 54.0927 41.6397 54.0781 41.7219C54.0636 41.804 54.0824 41.8886 54.1305 41.9567C54.4047 42.3454 54.6658 42.7151 54.9298 43.0889C55.037 43.2407 55.1448 43.3932 55.2541 43.548C55.353 43.6881 55.5462 43.7224 55.6873 43.6249L57.2438 42.5496C56.8969 44.588 56.2442 46.4333 55.2653 48.1708L55.2652 48.1708C54.1754 50.106 52.7448 51.7577 51.0001 53.1695C50.9354 53.2218 50.8943 53.2977 50.8857 53.3805C50.8771 53.4632 50.9019 53.5459 50.9544 53.6103C51.3705 54.1204 51.7571 54.594 52.1708 55.1006Z" fill="#272B3F" stroke="#272B3F" stroke-width="0.625498" stroke-linejoin="round"/>
<path d="M55.5227 27.6575C55.5875 27.6047 55.6285 27.5282 55.6365 27.445C55.6445 27.3618 55.6189 27.2788 55.5654 27.2146C52.3207 23.3247 48.2436 20.9967 43.2902 20.093C43.5661 19.8966 43.8327 19.7069 44.095 19.5202C44.3667 19.3268 44.6339 19.1366 44.9022 18.9455C45.0415 18.8464 45.0753 18.6538 44.9782 18.5131C44.7775 18.2223 44.5875 17.9477 44.4012 17.6784C44.2476 17.4564 44.0966 17.238 43.944 17.0171C43.8968 16.9488 43.8244 16.902 43.7427 16.8871C43.661 16.8723 43.5768 16.8905 43.5085 16.9378C41.8587 18.0811 40.2535 19.1928 38.633 20.3151C38.5648 20.3623 38.5181 20.4347 38.5033 20.5163C38.4885 20.5979 38.5067 20.6821 38.554 20.7503C39.6938 22.3954 40.8019 23.9959 41.93 25.6258C41.9775 25.6944 42.0505 25.7412 42.1326 25.7557C42.2148 25.7703 42.2993 25.7514 42.3675 25.7033C42.9104 25.3203 43.4284 24.9549 43.9617 24.5803C44.1025 24.4813 44.1369 24.2871 44.0386 24.1457L44.0337 24.1387C43.7643 23.7516 43.5322 23.4179 43.3012 23.0843C43.1894 22.9223 43.0779 22.7601 42.9589 22.5866C47.2995 23.3621 50.7927 25.4321 53.5877 28.8322C53.6971 28.9653 53.8936 28.9848 54.0271 28.8758C54.3654 28.5995 54.6987 28.3283 55.0423 28.0486C55.1998 27.9204 55.3594 27.7905 55.5227 27.6575Z" fill="#272B3F" stroke="#272B3F" stroke-width="0.625498" stroke-linejoin="round"/>
</svg>
