<svg width="80" height="80" viewBox="0 0 80 80" fill="none" xmlns="http://www.w3.org/2000/svg">
<circle cx="39.9171" cy="39.9171" r="39.9171" fill="white"/>
<path d="M57.1911 30.3809C58.9724 32.2304 60.5122 34.4671 61.6897 36.8446C62.0315 37.5373 62.0937 38.3424 61.8626 39.0827C61.6315 39.823 61.1261 40.4378 60.4575 40.792C59.7889 41.1461 59.0119 41.2106 58.2974 40.9712C57.5829 40.7317 56.9895 40.208 56.6477 39.5153C55.7483 37.679 54.581 35.9974 53.187 34.5297C51.1031 32.3705 48.5552 30.7536 45.7519 29.8114C42.9486 28.8693 39.9698 28.6287 37.0595 29.1094C34.1492 29.5901 31.3902 30.7784 29.0086 32.577C26.627 34.3755 24.6905 36.7331 23.3579 39.4566C23.1901 39.8004 22.9586 40.1066 22.6767 40.3577C22.3947 40.6088 22.0678 40.7999 21.7145 40.9201C21.3613 41.0403 20.9887 41.0872 20.6179 41.0582C20.2472 41.0291 19.8856 40.9247 19.5538 40.7509C19.222 40.5771 18.9264 40.3373 18.6841 40.0451C18.4417 39.753 18.2573 39.4142 18.1413 39.0482C18.0253 38.6822 17.98 38.2961 18.008 37.912C18.0361 37.5278 18.1368 37.1532 18.3046 36.8094C20.0408 33.2579 22.5647 30.1833 25.6692 27.8376C28.7737 25.4919 32.3705 23.9419 36.1648 23.3147C39.9591 22.6874 43.8429 23.0008 47.4977 24.229C51.1526 25.4573 54.4745 27.5655 57.1911 30.3809ZM51.0208 39.7264C52.3907 41.1459 53.5153 42.8859 54.3041 44.7394C54.6054 45.4524 54.6209 46.2602 54.3474 46.9851C54.0738 47.71 53.5336 48.2926 52.8455 48.6047C52.1573 48.9169 51.3777 48.933 50.6781 48.6496C49.9785 48.3662 49.4162 47.8064 49.1149 47.0934C48.6119 45.8953 47.9006 44.8031 47.0166 43.8713C46.0949 42.916 45.0006 42.1582 43.7962 41.6411C42.5918 41.1241 41.3008 40.858 39.9971 40.858C38.6934 40.858 37.4025 41.1241 36.1981 41.6411C34.9936 42.1582 33.8993 42.916 32.9776 43.8713C32.1042 44.7899 31.4041 45.8694 30.9133 47.0543C30.7694 47.4148 30.5576 47.742 30.2901 48.0166C30.0227 48.2912 29.7051 48.5078 29.3559 48.6537C29.0067 48.7996 28.6329 48.8718 28.2564 48.8661C27.8799 48.8604 27.5083 48.7769 27.1633 48.6206C26.8184 48.4642 26.507 48.2382 26.2474 47.9556C25.9878 47.673 25.7852 47.3396 25.6516 46.9748C25.5179 46.6101 25.4558 46.2214 25.4689 45.8316C25.482 45.4417 25.5701 45.0584 25.7279 44.7042C26.5129 42.839 27.6035 41.1459 28.9735 39.7264C30.4209 38.226 32.1394 37.0358 34.0309 36.2238C35.9224 35.4118 37.9497 34.9938 39.9971 34.9938C42.0445 34.9938 44.0719 35.4118 45.9634 36.2238C47.8548 37.0358 49.5734 38.226 51.0208 39.7264ZM43.3446 47.7034C44.2244 48.6145 44.7189 49.8503 44.7192 51.1392C44.7196 52.428 44.2258 53.6641 43.3465 54.5757C42.4672 55.4873 41.2744 55.9996 40.0305 56C38.7867 56.0004 37.5936 55.4887 36.7138 54.5777C35.8345 53.6666 35.3405 52.4309 35.3405 51.1425C35.3405 49.854 35.8345 48.6184 36.7138 47.7073C37.5931 46.7962 38.7857 46.2844 40.0292 46.2844C41.2727 46.2844 42.4653 46.7962 43.3446 47.7073V47.7034Z" fill="#272B3F"/>
</svg>
