<svg width="80" height="80" viewBox="0 0 80 80" fill="none" xmlns="http://www.w3.org/2000/svg">
<circle cx="39.9171" cy="39.9171" r="39.9171" fill="white"/>
<g clip-path="url(#clip0_667_1900)">
<path d="M37.1046 54.7229C44.572 54.7229 50.6255 48.6694 50.6255 41.202C50.6255 33.7347 44.572 27.6812 37.1046 27.6812C29.6373 27.6812 23.5837 33.7347 23.5837 41.202C23.5837 48.6694 29.6373 54.7229 37.1046 54.7229Z" stroke="#272B3F" stroke-width="4.00619" stroke-miterlimit="10"/>
<path d="M42.7544 20.4702H31.8968C31.3437 20.4702 30.8953 20.9186 30.8953 21.4718V23.1431C30.8953 23.6963 31.3437 24.1447 31.8968 24.1447H42.7544C43.3075 24.1447 43.7559 23.6963 43.7559 23.1431V21.4718C43.7559 20.9186 43.3075 20.4702 42.7544 20.4702Z" fill="#272B3F"/>
<path d="M28.2698 28.992C28.6774 29.4303 28.6099 30.1241 28.1567 30.515C27.7996 30.823 27.4577 31.148 27.1323 31.4885C26.7123 31.9279 26.0019 31.9527 25.5884 31.5072L23.364 29.1111C22.9877 28.7057 23.0112 28.072 23.4166 27.6956L24.6408 26.5592C25.0459 26.1831 25.6792 26.2064 26.0556 26.6112L28.2698 28.992Z" fill="#272B3F"/>
<path d="M34.861 40.2479L40.6575 34.4514C41.2776 33.8313 42.2789 33.8313 42.8989 34.4514C43.519 35.0714 43.519 36.0727 42.8989 36.6928L37.1025 42.4893C36.4824 43.1093 35.4811 43.1093 34.861 42.4893C34.241 41.8692 34.241 40.8679 34.861 40.2479Z" fill="#272B3F"/>
<path d="M52.3423 34.2495H62.4471" stroke="#272B3F" stroke-width="2.0031" stroke-miterlimit="10" stroke-linecap="round"/>
<path d="M55.0981 38.1533H65.2029" stroke="#272B3F" stroke-width="2.0031" stroke-miterlimit="10" stroke-linecap="round"/>
<path d="M57.854 42.0576H67.9588" stroke="#272B3F" stroke-width="2.0031" stroke-miterlimit="10" stroke-linecap="round"/>
</g>
<defs>
<clipPath id="clip0_667_1900">
<rect width="47.0791" height="36.0557" fill="white" transform="translate(20.8796 20.4702)"/>
</clipPath>
</defs>
</svg>
