<svg width="96" height="95" viewBox="0 0 96 95" fill="none" xmlns="http://www.w3.org/2000/svg">
<path d="M95.0316 70.8814C94.5445 72.9265 93.7134 74.7856 92.0291 76.1614C89.4839 78.2492 85.8437 78.7344 83.081 77.2769C79.8052 75.5572 78.2101 72.8298 78.3886 69.132C78.4202 68.4683 78.264 68.1597 77.6988 67.8436C72.9803 65.2129 68.2823 62.5451 63.5694 59.8902C63.3333 59.7564 63.0897 59.6374 62.7886 59.4793C60.2876 62.63 56.8832 64.9406 53.0318 66.1016C53.253 67.7618 53.4668 69.4053 53.6937 71.0488C53.9837 73.157 54.2979 75.2634 54.573 77.3698C54.6679 78.0912 54.8798 78.5057 55.7071 78.7512C60.0017 80.0284 62.4 84.7655 61.0428 89.1307C59.7135 93.429 55.0657 95.9463 50.8176 94.6412C47.3819 93.5852 45.3313 91.2408 44.8386 87.7103C44.3571 84.2616 45.7793 81.5752 48.6145 79.6119C48.8636 79.439 49.1592 79.0449 49.1258 78.7958C48.6052 74.8916 48.0363 70.9874 47.4656 66.9958C40.373 66.7541 34.9015 63.601 30.9378 57.6425L26.5242 59.5017C23.5124 60.7752 20.5062 62.0561 17.4851 63.3073C16.9423 63.5323 16.7136 63.7851 16.682 64.4321C16.5072 67.9756 14.7541 70.5672 11.4987 71.8928C8.19874 73.237 5.06052 72.6123 2.51908 70.0932C-0.0539674 67.5443 -0.641454 64.4116 0.633913 61.0373C2.58787 55.8317 9.46667 54.1399 13.6479 57.8024C14.2688 58.3453 14.7206 58.4475 15.507 58.1054C19.5971 56.3151 23.7374 54.6047 27.8554 52.8627C28.1361 52.7437 28.4131 52.6117 28.7701 52.4481C27.7636 49.0151 27.7946 45.3612 28.8593 41.9458C29.9134 38.4692 31.8451 35.5392 34.5408 33.0536C32.81 30.4508 31.1145 27.9168 29.4208 25.3735C28.8389 24.4997 28.2402 23.6371 27.6825 22.7465C27.4166 22.3208 27.1247 22.1888 26.6172 22.2836C23.4158 22.8878 19.9094 21.3262 18.2232 18.5839C16.3641 15.5554 16.5016 11.7497 18.5746 9.10233C20.8055 6.25042 24.2765 5.0866 27.5579 6.08681C32.9885 7.74144 35.2343 13.6609 32.2987 18.5282C32.1556 18.7643 32.07 19.2105 32.1965 19.4019C34.4683 22.8618 36.7774 26.2975 39.0753 29.735C39.1069 29.7815 39.1775 29.8001 39.2816 29.8652C45.6232 27.0504 51.829 27.3609 57.9027 31.0513C59.0536 29.7462 60.1765 28.4448 61.2957 27.1434C65.2779 22.4955 69.2621 17.8477 73.2481 13.1999C73.5715 12.828 73.6496 12.5603 73.434 12.0844C71.0877 6.99965 73.9917 1.32185 79.4985 0.152449C79.6099 0.113856 79.7165 0.0627104 79.8164 0L82.0473 0C82.1185 0.0567987 82.1982 0.101977 82.2835 0.133858C85.1261 0.673007 87.1972 2.26257 88.4186 4.85792C89.8817 7.98499 89.6029 11.0303 87.424 13.7241C85.193 16.4719 82.2686 17.4424 78.8125 16.5482C78.158 16.3808 77.7862 16.4812 77.3363 17.0092C72.4245 22.7738 67.4965 28.5291 62.5524 34.275C62.4302 34.4311 62.3167 34.5937 62.2122 34.7621C67.059 40.7634 68.2897 47.3503 65.6739 54.6177C65.9472 54.7832 66.1759 54.9338 66.4176 55.0676C71.1231 57.7243 75.836 60.368 80.5266 63.0489C81.0992 63.3761 81.4654 63.3203 81.9841 62.9429C84.9011 60.8105 88.9894 60.9611 91.819 63.1939C93.613 64.6087 94.5333 66.4994 95.0353 68.6542L95.0316 70.8814Z" fill="white"/>
</svg>
