<svg width="1024" height="1024" viewBox="0 0 1024 1024" fill="none" xmlns="http://www.w3.org/2000/svg">
<rect width="1024" height="1024" rx="128" fill="white"/>
<path d="M660.718 642.646C666.611 638.717 672.58 634.939 678.55 631.236C691.697 623.076 705.826 616.502 718.671 607.813C728.267 601.315 737.258 593.759 745.116 585.146C754.712 574.643 762.57 562.327 766.651 548.651C768.313 543.135 769.673 537.242 769.824 531.424C770.202 519.863 770.126 507.245 768.011 495.836C766.726 488.96 764.686 482.235 762.042 475.813C747.308 439.469 716.253 414.006 683.007 394.738C669.331 386.805 655.731 378.947 642.055 371.013C623.619 360.359 605.182 349.63 586.746 338.976C565.363 326.585 543.904 314.118 522.521 301.726C500.005 288.654 477.413 275.583 454.897 262.511C432.985 249.817 411.148 237.123 389.236 224.43C369.893 213.171 350.475 201.913 331.132 190.731C316.171 181.89 301.135 173.125 286.023 164.361C277.108 159.223 268.192 154.009 259.276 148.871C257.614 147.889 256.027 146.982 254.365 146V353.71C254.365 353.71 245.297 398.894 317.607 444.002L660.718 642.646Z" fill="url(#paint0_linear_0_1)"/>
<path d="M263.356 516.236V606.529C263.356 606.529 263.356 642.646 290.482 660.704L480.134 760.063C484.365 758.401 488.521 756.588 492.752 754.774C501.139 751.223 509.375 747.445 517.535 743.365C525.695 739.209 533.931 734.525 539.825 727.347C543.074 723.418 545.718 719.035 547.532 714.275C549.874 708.155 550.554 701.506 549.572 695.008C548.136 686.092 543.527 677.931 537.86 671.056C534.46 666.9 530.682 663.122 526.602 659.646C520.482 654.357 513.984 650.353 506.881 646.575C504.161 645.139 501.441 643.628 498.721 642.192C495.321 640.379 491.845 638.49 488.445 636.676C484.44 634.485 480.36 632.37 476.356 630.178C471.822 627.761 467.289 625.343 462.755 622.849C457.768 620.205 452.857 617.56 447.87 614.84C442.581 611.969 437.292 609.173 432.003 606.302C426.487 603.355 420.971 600.408 415.456 597.462C409.789 594.439 404.122 591.417 398.455 588.395C392.712 585.372 387.046 582.274 381.303 579.252C375.636 576.23 369.969 573.207 364.303 570.185C358.787 567.238 353.271 564.291 347.755 561.345C342.466 558.549 337.177 555.678 331.888 552.882C326.901 550.238 321.99 547.593 317.003 544.949C312.469 542.531 307.936 540.113 303.402 537.619C299.398 535.428 295.318 533.313 291.313 531.121C287.913 529.308 284.513 527.495 281.037 525.606C278.317 524.17 275.597 522.659 272.877 521.223C270.988 520.165 269.023 519.183 267.134 518.125C266.077 517.596 265.094 516.992 264.036 516.463C263.659 516.387 263.508 516.312 263.356 516.236Z" fill="url(#paint1_linear_0_1)"/>
<path d="M308.537 877.405C338.457 877.405 362.712 853.15 362.712 823.23C362.712 793.31 338.457 769.054 308.537 769.054C278.616 769.054 254.361 793.31 254.361 823.23C254.361 853.15 278.616 877.405 308.537 877.405Z" fill="url(#paint2_linear_0_1)"/>
<defs>
<linearGradient id="paint0_linear_0_1" x1="253.987" y1="394.321" x2="769.983" y2="394.321" gradientUnits="userSpaceOnUse">
<stop stop-color="#FF4926"/>
<stop offset="1" stop-color="#FD0D66"/>
</linearGradient>
<linearGradient id="paint1_linear_0_1" x1="263.378" y1="638.126" x2="549.884" y2="638.126" gradientUnits="userSpaceOnUse">
<stop stop-color="#FF4926"/>
<stop offset="1" stop-color="#FD0D66"/>
</linearGradient>
<linearGradient id="paint2_linear_0_1" x1="254.345" y1="823.238" x2="362.703" y2="823.238" gradientUnits="userSpaceOnUse">
<stop stop-color="#FF4926"/>
<stop offset="1" stop-color="#FD0D66"/>
</linearGradient>
</defs>
</svg>
