<svg width="154" height="120" viewBox="0 0 154 120" fill="none" xmlns="http://www.w3.org/2000/svg">
<path d="M153.466 40.1999C150.767 44.5936 146.799 46.9022 141.703 47.3845C141.273 47.4135 140.868 47.5931 140.557 47.8916C137.72 51.2995 133.944 53.101 129.788 54.2748C129.6 54.328 129.433 54.3989 129.139 54.4982C129.472 56.3777 129.869 58.2111 130.114 60.0693C131.082 67.3815 129.639 74.2541 126.213 80.7436C123.901 85.1161 120.801 88.868 117.22 92.2617C116.597 92.8783 116.179 93.6721 116.025 94.5348C114.899 102.129 113.059 109.6 110.528 116.848C109.73 119.106 108.578 119.975 106.188 119.986C101.09 120.01 95.9946 120.01 90.8998 119.986C87.7579 119.965 86.1373 117.858 86.9033 114.844C87.5735 112.195 88.3218 109.56 89.1055 106.588C78.3427 108.925 67.7112 109.191 56.9662 107.039C56.1506 109.652 55.3917 112.213 54.5513 114.745C52.8172 119.968 52.7462 120 47.2638 119.997C43.0084 119.997 38.7529 119.997 34.5223 119.997C31.0258 119.997 29.4406 117.901 30.2952 114.521C31.54 109.578 32.7457 104.649 34.0436 99.7336C34.3273 98.652 34.111 98.042 33.1464 97.4108C27.5705 93.844 22.8027 89.1499 19.1495 83.6302C18.7713 83.1489 18.218 82.8365 17.6105 82.7614C13.7877 82.4068 10.0712 81.8181 7.18817 78.9067C3.93985 75.6265 2.33696 71.5022 1.33693 67.1404C0.6961 64.3206 0.257618 61.4586 0.0248381 58.5763C-0.24822 55.2393 1.62063 53.3279 4.89023 52.7357C8.15983 52.1435 11.2734 51.3172 14.465 50.5123C14.7366 50.427 14.9875 50.2862 15.2018 50.0988C15.4161 49.9113 15.589 49.6814 15.7097 49.4236C18.7452 41.0226 24.2099 34.6111 31.6322 29.7882C31.8109 29.6533 31.9803 29.5064 32.1393 29.3485C28.0398 24.0469 24.8518 18.3801 23.8376 11.5466C27.5574 11.2653 31.2979 11.4679 34.9656 12.1494C42.7924 13.5511 50.2938 16.3834 57.0939 20.5043C57.5904 20.8022 58.289 20.827 58.8989 20.8589C59.3982 20.8481 59.896 20.8007 60.3883 20.717C60.6756 20.6958 60.9699 20.717 61.2749 20.717C62.9132 31.7635 68.7219 39.4233 79.7896 41.5935C91.5453 43.8986 100.06 38.6644 105.677 28.2279C114.074 32.7954 121.174 38.7566 125.837 47.2533C126.621 48.6718 127.373 49.1257 128.827 48.5086C129.89 48.0618 130.979 47.7214 132.018 47.2639C132.593 46.9766 133.149 46.6545 133.685 46.2994C131.947 44.8809 130.139 43.6149 128.582 42.0687C126.953 40.4706 125.985 38.3188 125.869 36.0402C125.582 30.962 129.876 27.6853 134.706 29.3521C138.337 30.6039 140.337 33.5188 141.799 36.8239C142.391 38.1608 142.621 39.6609 143.043 41.1751C144.777 40.8914 146.146 39.9765 147.32 38.6928C147.763 38.2176 148.153 37.6892 148.629 37.253C150.164 35.8345 151.88 36.2388 153.469 38.3559L153.466 40.1999ZM42.0083 46.0547C42.0069 45.1211 41.7287 44.209 41.2089 43.4336C40.6891 42.6582 39.9511 42.0543 39.0881 41.6984C38.2251 41.3424 37.2759 41.2504 36.3606 41.4339C35.4453 41.6174 34.6049 42.0682 33.9458 42.7292C33.2867 43.3903 32.8384 44.232 32.6577 45.1479C32.4769 46.0638 32.5718 47.0127 32.9304 47.8746C33.2889 48.7365 33.895 49.4728 34.672 49.9902C35.4489 50.5077 36.3619 50.7832 37.2954 50.7818C37.9194 50.7959 38.5398 50.6832 39.1189 50.4504C39.698 50.2177 40.2238 49.8698 40.6645 49.4278C41.1052 48.9858 41.4515 48.4589 41.6825 47.8791C41.9135 47.2993 42.0243 46.6786 42.0083 46.0547ZM137.008 40.934C136.643 38.7524 135.48 36.7843 133.745 35.4125C133.281 35.0579 132.493 35.0827 131.855 34.9373C131.876 35.5437 131.72 36.2281 131.951 36.7388C132.905 38.8452 134.6 40.1361 137.008 40.934Z" fill="white"/>
<path d="M84.4316 0.000412083C89.5076 0.0191238 94.3702 2.04509 97.9579 5.6361C101.546 9.22711 103.567 14.0916 103.581 19.1676C103.606 29.8063 94.8716 38.4413 84.1621 38.3881C81.6225 38.3998 79.1058 37.9075 76.7579 36.9396C74.4099 35.9718 72.2774 34.5476 70.4838 32.7497C68.6902 30.9518 67.2711 28.8158 66.3089 26.4655C65.3467 24.1153 64.8605 21.5974 64.8783 19.0579C64.8961 16.5184 65.4177 14.0076 66.4128 11.6711C67.4079 9.33457 68.8568 7.21874 70.6755 5.44617C72.4941 3.67361 74.6465 2.27955 77.0078 1.34476C79.3691 0.409968 81.8924 -0.0469721 84.4316 0.000412083ZM84.3996 33.6503C85.7685 33.5404 86.2401 32.5865 86.2153 31.3879C86.1905 30.4304 86.5699 30.019 87.4104 29.6467C88.5455 29.1619 89.5082 28.3464 90.173 27.3065C90.8378 26.2666 91.1739 25.0505 91.1374 23.8167C91.024 21.0578 89.0487 18.7988 85.8997 17.7882C84.8479 17.4939 83.8172 17.129 82.8145 16.6959C81.7861 16.2137 81.2045 15.3271 81.4457 14.1391C81.7045 12.8554 82.6088 12.1781 83.8677 12.0611C85.6763 11.8908 87.226 12.3235 88.1515 14.1001C88.7047 15.164 89.5523 15.6675 90.7403 15.0682C91.8041 14.5363 92.0346 13.5292 91.4069 12.2313C91.0058 11.3969 90.438 10.6537 89.7384 10.0474C89.0388 9.44116 88.2223 8.98474 87.3394 8.70634C86.5557 8.44392 86.2756 8.11413 86.2437 7.2524C86.2082 5.67079 85.4706 4.90836 84.2543 5.00411C82.857 5.11758 82.389 6.06797 82.4492 7.2985C82.4953 8.20278 82.1336 8.59641 81.3499 8.96167C78.9279 10.0858 77.5661 11.9759 77.6016 14.7243C77.637 17.4726 79.4846 19.6889 82.4421 20.7102C83.5698 21.0968 84.7259 21.4195 85.8181 21.8876C86.3177 22.0743 86.7347 22.4325 86.9945 22.8983C87.2544 23.364 87.3402 23.907 87.2366 24.4302C87.0735 25.6182 86.2579 26.2246 85.1692 26.526C83.3571 27.026 81.662 26.3026 80.5095 24.4621C79.8818 23.455 79.0272 23.0436 77.9846 23.5543C76.8427 24.1004 76.7186 25.1075 77.2009 26.2246C77.5537 27.0525 78.0777 27.7965 78.7383 28.4076C79.399 29.0188 80.1814 29.4834 81.0343 29.7708C82.0095 30.1254 82.4882 30.48 82.4528 31.6184C82.4173 32.7567 83.0663 33.6113 84.3996 33.6503Z" fill="white"/>
</svg>
