<svg width="112" height="130" viewBox="0 0 112 130" fill="none" xmlns="http://www.w3.org/2000/svg">
<path d="M111.443 45.1182C111.443 51.7401 111.443 58.3646 111.443 64.9917C111.443 84.9001 103.44 100.991 88.1885 113.559C79.0989 121.036 68.5668 126.561 57.2485 129.79C56.2423 130.073 55.1775 130.073 54.1712 129.79C37.8195 124.759 23.5955 116.392 12.7899 102.882C5.48087 93.8359 1.13197 82.76 0.333313 71.1576C0.0426331 67.3092 0.0503846 63.4337 0.0426331 59.566C0 46.8505 0.0465089 34.1312 0 21.4118C0 20.2996 0.360444 19.8616 1.37201 19.4741C19.0609 13.0847 36.742 6.67595 54.4154 0.247807C55.2007 -0.0460848 56.0602 -0.0773615 56.8648 0.158671C74.5925 6.56097 92.2968 13.033 110.021 19.4431C111.098 19.8306 111.486 20.2841 111.474 21.47C111.412 29.3527 111.443 37.2354 111.443 45.1182ZM79.9875 43.1301L46.2686 76.8739L31.3625 61.9611L25.0218 68.2975L46.4662 89.7444L86.5259 49.6758C84.5144 47.6683 82.4021 45.5522 79.9875 43.1301Z" fill="white"/>
</svg>
