<svg width="40" height="40" viewBox="0 0 40 40" fill="none" xmlns="http://www.w3.org/2000/svg">
<path d="M20 13.4917C16.416 13.4917 13.4912 16.4165 13.4912 20.0005C13.4912 23.5845 16.416 26.5093 20 26.5093C23.584 26.5093 26.5088 23.5845 26.5088 20.0005C26.5088 16.4165 23.584 13.4917 20 13.4917ZM39.5215 20.0005C39.5215 17.3052 39.5459 14.6343 39.3945 11.9438C39.2432 8.81883 38.5303 6.0454 36.2451 3.76024C33.9551 1.4702 31.1865 0.762194 28.0615 0.610827C25.3662 0.45946 22.6953 0.483874 20.0049 0.483874C17.3096 0.483874 14.6387 0.45946 11.9482 0.610827C8.82323 0.762194 6.04979 1.47508 3.76464 3.76024C1.4746 6.05028 0.766589 8.81883 0.615222 11.9438C0.463855 14.6391 0.488269 17.31 0.488269 20.0005C0.488269 22.6909 0.463855 25.3667 0.615222 28.0571C0.766589 31.1821 1.47948 33.9556 3.76464 36.2407C6.05468 38.5307 8.82323 39.2388 11.9482 39.3901C14.6435 39.5415 17.3144 39.5171 20.0049 39.5171C22.7002 39.5171 25.3711 39.5415 28.0615 39.3901C31.1865 39.2388 33.9599 38.5259 36.2451 36.2407C38.5351 33.9507 39.2432 31.1821 39.3945 28.0571C39.5508 25.3667 39.5215 22.6958 39.5215 20.0005ZM20 30.0151C14.458 30.0151 9.98534 25.5425 9.98534 20.0005C9.98534 14.4585 14.458 9.98583 20 9.98583C25.542 9.98583 30.0146 14.4585 30.0146 20.0005C30.0146 25.5425 25.542 30.0151 20 30.0151ZM30.4248 11.9145C29.1308 11.9145 28.0859 10.8696 28.0859 9.57567C28.0859 8.28173 29.1308 7.2368 30.4248 7.2368C31.7187 7.2368 32.7637 8.28173 32.7637 9.57567C32.764 9.88292 32.7038 10.1872 32.5864 10.4712C32.469 10.7551 32.2967 11.0131 32.0795 11.2304C31.8622 11.4476 31.6042 11.6199 31.3203 11.7373C31.0364 11.8547 30.732 11.9149 30.4248 11.9145Z" fill="white"/>
</svg>
