<svg width="45" height="45" viewBox="0 0 45 45" fill="none" xmlns="http://www.w3.org/2000/svg">
<circle cx="22.5" cy="22.5" r="22.5" fill="white"/>
<path d="M22 9C19.0837 9.00344 16.2878 10.1635 14.2256 12.2256C12.1635 14.2878 11.0035 17.0837 11 20C10.9965 22.3832 11.775 24.7018 13.216 26.6C13.216 26.6 13.516 26.995 13.565 27.052L22 37L30.439 27.047C30.483 26.994 30.784 26.6 30.784 26.6L30.785 26.597C32.2253 24.6996 33.0034 22.3821 33 20C32.9966 17.0837 31.8365 14.2878 29.7744 12.2256C27.7122 10.1635 24.9163 9.00344 22 9ZM22 24C21.2089 24 20.4355 23.7654 19.7777 23.3259C19.1199 22.8864 18.6072 22.2616 18.3045 21.5307C18.0017 20.7998 17.9225 19.9956 18.0769 19.2196C18.2312 18.4437 18.6122 17.731 19.1716 17.1716C19.731 16.6122 20.4437 16.2312 21.2197 16.0769C21.9956 15.9225 22.7998 16.0017 23.5307 16.3045C24.2616 16.6072 24.8864 17.1199 25.3259 17.7777C25.7654 18.4355 26 19.2089 26 20C25.9987 21.0605 25.5768 22.0771 24.827 22.827C24.0771 23.5768 23.0605 23.9987 22 24Z" fill="#202125"/>
</svg>
