<svg width="69" height="97" viewBox="0 0 69 97" fill="none" xmlns="http://www.w3.org/2000/svg">
<path d="M53.83 65.73C54.61 65.21 55.3999 64.71 56.1899 64.22C57.9299 63.14 59.8 62.27 61.5 61.12C62.77 60.26 63.9599 59.26 64.9999 58.12C66.2699 56.73 67.3099 55.1 67.8499 53.29C68.0699 52.56 68.2499 51.78 68.2699 51.01C68.3199 49.48 68.3099 47.81 68.0299 46.3C67.8599 45.39 67.5899 44.5 67.2399 43.65C65.2899 38.84 61.1799 35.47 56.7799 32.92C54.9699 31.87 53.17 30.83 51.36 29.78C48.92 28.37 46.48 26.95 44.04 25.54C41.21 23.9 38.37 22.25 35.54 20.61C32.56 18.88 29.57 17.15 26.59 15.42C23.69 13.74 20.8 12.06 17.9 10.38C15.34 8.89 12.7699 7.4 10.2099 5.92C8.22995 4.75 6.23995 3.59 4.23995 2.43C3.05995 1.75 1.87995 1.06 0.69995 0.38C0.47995 0.25 0.26995 0.13 0.0499499 0V27.49C0.0499499 27.49 -1.15005 33.47 8.41995 39.44L53.83 65.73Z" fill="url(#paint0_linear_491_1719)"/>
<path d="M1.23999 49V60.95C1.23999 60.95 1.23999 65.73 4.82999 68.12L29.93 81.27C30.49 81.05 31.04 80.81 31.6 80.57C32.71 80.1 33.8 79.6 34.88 79.06C35.96 78.51 37.05 77.89 37.83 76.94C38.26 76.42 38.61 75.84 38.85 75.21C39.16 74.4 39.25 73.52 39.12 72.66C38.93 71.48 38.32 70.4 37.57 69.49C37.12 68.94 36.62 68.44 36.08 67.98C35.27 67.28 34.41 66.75 33.47 66.25C33.11 66.06 32.75 65.86 32.39 65.67C31.94 65.43 31.48 65.18 31.03 64.94C30.5 64.65 29.96 64.37 29.43 64.08C28.83 63.76 28.23 63.44 27.63 63.11C26.97 62.76 26.32 62.41 25.66 62.05C24.96 61.67 24.26 61.3 23.56 60.92C22.83 60.53 22.1 60.14 21.37 59.75C20.62 59.35 19.87 58.95 19.12 58.55C18.36 58.15 17.61 57.74 16.85 57.34C16.1 56.94 15.35 56.54 14.6 56.14C13.87 55.75 13.14 55.36 12.41 54.97C11.71 54.6 11.01 54.22 10.31 53.85C9.64999 53.5 8.99999 53.15 8.33999 52.8C7.73999 52.48 7.13999 52.16 6.53999 51.83C6.00999 51.54 5.46999 51.26 4.93999 50.97C4.48999 50.73 4.03999 50.49 3.57999 50.24C3.21999 50.05 2.85999 49.85 2.49999 49.66C2.24999 49.52 1.98999 49.39 1.73999 49.25C1.59999 49.18 1.46999 49.1 1.32999 49.03C1.27999 49.02 1.25999 49.01 1.23999 49Z" fill="url(#paint1_linear_491_1719)"/>
<path d="M7.22005 96.8C11.1799 96.8 14.39 93.5899 14.39 89.63C14.39 85.6701 11.1799 82.46 7.22005 82.46C3.26017 82.46 0.0500488 85.6701 0.0500488 89.63C0.0500488 93.5899 3.26017 96.8 7.22005 96.8Z" fill="url(#paint2_linear_491_1719)"/>
<defs>
<linearGradient id="paint0_linear_491_1719" x1="-5.01125e-05" y1="32.8647" x2="68.2909" y2="32.8647" gradientUnits="userSpaceOnUse">
<stop stop-color="#FF4926"/>
<stop offset="1" stop-color="#FD0D66"/>
</linearGradient>
<linearGradient id="paint1_linear_491_1719" x1="1.24289" y1="65.1319" x2="39.1613" y2="65.1319" gradientUnits="userSpaceOnUse">
<stop stop-color="#FF4926"/>
<stop offset="1" stop-color="#FD0D66"/>
</linearGradient>
<linearGradient id="paint2_linear_491_1719" x1="0.0478488" y1="89.6311" x2="14.3888" y2="89.6311" gradientUnits="userSpaceOnUse">
<stop stop-color="#FF4926"/>
<stop offset="1" stop-color="#FD0D66"/>
</linearGradient>
</defs>
</svg>
