<svg width="92" height="192" viewBox="0 0 92 192" fill="none" xmlns="http://www.w3.org/2000/svg">
<g clip-path="url(#clip0_545_1740)">
<path d="M72.0754 88.0186C73.1158 87.325 74.1761 86.6512 75.2363 85.9873C77.5648 84.5406 80.0717 83.3813 82.3408 81.8455C84.0451 80.6862 85.6404 79.3584 87.0276 77.8325C88.722 75.9697 90.1191 73.7897 90.8523 71.3621C91.1496 70.3812 91.3874 69.3309 91.4171 68.3004C91.4766 66.2493 91.4766 64.0099 91.1 61.9885C90.8721 60.7698 90.5154 59.5807 90.0497 58.4412C87.4338 52.0006 81.9246 47.4823 76.0488 44.0737C73.6311 42.6667 71.2134 41.2695 68.7957 39.8625C65.5258 37.97 62.2659 36.0774 58.996 34.1749C55.201 31.9752 51.406 29.7755 47.6209 27.5758C43.6277 25.2572 39.6246 22.9385 35.6314 20.6199C31.7571 18.3706 27.8729 16.1214 23.9986 13.8721C20.5603 11.8805 17.1319 9.88884 13.6936 7.8972C11.0282 6.35145 8.35286 4.8057 5.68743 3.25004C4.10205 2.32853 2.52657 1.41694 0.94119 0.495433C0.64393 0.336894 0.356579 0.168447 0.0593196 0V36.8106C0.0593196 36.8106 -1.54588 44.8168 11.266 52.8131L72.0754 88.0186Z" fill="url(#paint0_linear_545_1740)"/>
<path d="M1.66455 65.6151V81.6176C1.66455 81.6176 1.66455 88.0186 6.47025 91.2191L40.0804 108.827C40.8335 108.529 41.5667 108.212 42.3099 107.895C43.7862 107.261 45.2626 106.597 46.6994 105.874C48.146 105.141 49.6026 104.308 50.643 103.04C51.2177 102.346 51.6933 101.564 52.0104 100.721C52.4167 99.6315 52.5554 98.4623 52.3671 97.3129C52.1095 95.7275 51.297 94.2908 50.2863 93.0621C49.6819 92.3288 49.0081 91.6551 48.2947 91.0407C47.2146 90.0994 46.0652 89.3959 44.8068 88.7221C44.3213 88.4645 43.8358 88.2068 43.3602 87.9492C42.7557 87.6222 42.1414 87.2952 41.537 86.9683C40.8236 86.5818 40.1101 86.2053 39.3967 85.8189C38.5941 85.3829 37.7816 84.9568 36.979 84.5208C36.0971 84.0452 35.2153 83.5795 34.3433 83.1039C33.402 82.5985 32.4706 82.1031 31.5292 81.5978C30.5483 81.0726 29.5673 80.5475 28.5963 80.0223C27.5955 79.4872 26.5848 78.9522 25.584 78.4072C24.5734 77.8622 23.5627 77.3271 22.552 76.7822C21.5512 76.2471 20.5504 75.712 19.5398 75.1671C18.5588 74.6419 17.5878 74.1167 16.6068 73.5916C15.6655 73.0862 14.7341 72.5908 13.7927 72.0855C12.9109 71.6098 12.0389 71.1441 11.157 70.6685C10.3544 70.2425 9.55184 69.8065 8.74924 69.3804C8.03582 68.994 7.32239 68.6174 6.60897 68.231C6.00454 67.904 5.40011 67.5869 4.79569 67.2599C4.31016 67.0023 3.83455 66.7447 3.34902 66.4871C3.01213 66.3087 2.66532 66.1205 2.32843 65.9421C2.14017 65.843 1.96181 65.7439 1.77355 65.6448C1.724 65.6448 1.69428 65.625 1.66455 65.6151Z" fill="url(#paint1_linear_545_1740)"/>
<path d="M9.67058 129.625C14.9733 129.625 19.2721 125.326 19.2721 120.023C19.2721 114.721 14.9733 110.422 9.67058 110.422C4.36782 110.422 0.0690918 114.721 0.0690918 120.023C0.0690918 125.326 4.36782 129.625 9.67058 129.625Z" fill="url(#paint2_linear_545_1740)"/>
<path d="M7.54049 162.482H4.14182V170.102H2.24927V147.5H8.36291C10.1167 147.738 11.6129 148.471 12.8317 149.69C14.2982 151.147 15.0215 152.92 15.0215 154.981C15.0215 157.062 14.2883 158.826 12.8317 160.292C11.821 161.303 10.8103 161.937 9.78975 162.185L14.9323 170.102H12.6236L7.54049 162.482ZM4.14182 149.413V160.6H7.54049C9.07633 160.6 10.3942 160.055 11.494 158.955C12.584 157.865 13.1389 156.537 13.1389 154.991C13.1389 153.446 12.5939 152.138 11.494 151.048C10.3942 149.958 9.08624 149.413 7.54049 149.413H4.14182Z" fill="white"/>
<path d="M37.4945 150.582C39.7636 152.841 40.8931 155.576 40.8931 158.776C40.8931 161.977 39.7536 164.712 37.4945 166.971C35.2254 169.23 32.4906 170.369 29.3 170.369C26.0995 170.369 23.3647 169.24 21.1056 166.971C18.8464 164.712 17.7168 161.977 17.7168 158.776C17.7168 155.576 18.8464 152.841 21.1056 150.582C23.3647 148.323 26.0995 147.193 29.3 147.193C32.4906 147.193 35.2254 148.323 37.4945 150.582ZM29.2901 149.096C26.6247 149.096 24.3457 150.037 22.463 151.929C20.5804 153.822 19.6292 156.101 19.6292 158.776C19.6292 161.452 20.5705 163.741 22.463 165.633C24.3556 167.526 26.6247 168.477 29.2901 168.477C31.9654 168.477 34.2444 167.526 36.137 165.633C38.0295 163.741 38.9709 161.452 38.9709 158.776C38.9709 156.101 38.0295 153.822 36.137 151.929C34.2444 150.037 31.9654 149.096 29.2901 149.096Z" fill="white"/>
<path d="M63.9901 167.179C61.7705 169.299 59.1646 170.36 56.1821 170.36C52.9915 170.36 50.2666 169.23 48.0074 166.981C45.7482 164.731 44.6187 162.007 44.6187 158.806C44.6187 155.615 45.7482 152.891 48.0074 150.641C50.2666 148.382 52.9915 147.253 56.1821 147.253C59.1745 147.253 61.8597 148.333 64.2279 150.493L62.8109 151.791C60.8391 150.037 58.6295 149.165 56.1721 149.165C53.5166 149.165 51.2475 150.106 49.3649 151.989C47.4823 153.872 46.5409 156.141 46.5409 158.806C46.5409 161.481 47.4823 163.76 49.3649 165.643C51.2475 167.526 53.5166 168.467 56.1721 168.467C58.461 168.467 60.4329 167.803 62.0876 166.456V159.599H63.9802V167.179H63.9901Z" fill="white"/>
<path d="M87.7413 150.582C90.0104 152.841 91.14 155.576 91.14 158.776C91.14 161.977 90.0005 164.712 87.7413 166.971C85.4722 169.23 82.7374 170.369 79.5468 170.369C76.3463 170.369 73.6116 169.24 71.3524 166.971C69.0932 164.712 67.9636 161.977 67.9636 158.776C67.9636 155.576 69.0932 152.841 71.3524 150.582C73.6116 148.323 76.3463 147.193 79.5468 147.193C82.7374 147.193 85.4722 148.323 87.7413 150.582ZM79.5369 149.096C76.8715 149.096 74.5925 150.037 72.7099 151.929C70.8272 153.822 69.876 156.101 69.876 158.776C69.876 161.452 70.8173 163.741 72.7099 165.633C74.6024 167.526 76.8715 168.477 79.5369 168.477C82.2123 168.477 84.4913 167.526 86.3838 165.633C88.2764 163.741 89.2177 161.452 89.2177 158.776C89.2177 156.101 88.2764 153.822 86.3838 151.929C84.4913 150.037 82.2123 149.096 79.5369 149.096Z" fill="white"/>
<path d="M2.45728 187.501H5.31097C5.31097 188.056 5.51905 188.512 5.9253 188.869C6.31174 189.196 6.78736 189.354 7.35215 189.354C7.60978 189.354 7.85749 189.315 8.08539 189.226C8.31329 189.146 8.52137 189.017 8.70964 188.839C9.08617 188.482 9.27443 188.037 9.27443 187.501C9.27443 186.996 9.14562 186.57 8.88799 186.223C8.67991 185.956 8.35292 185.708 7.91694 185.48C7.6395 185.341 7.23325 185.193 6.70809 185.014C6.05412 184.796 5.59832 184.628 5.34069 184.509C4.8948 184.291 4.49846 184.014 4.15166 183.667C3.80485 183.32 3.52741 182.884 3.30942 182.359C3.21033 182.111 3.13106 181.854 3.07161 181.606C3.02207 181.358 2.99234 181.1 2.99234 180.833C2.99234 179.644 3.41841 178.653 4.27056 177.85C5.11279 177.048 6.1433 176.651 7.33233 176.651C8.48174 176.651 9.48251 177.068 10.3446 177.89C11.2066 178.712 11.6327 179.693 11.6327 180.833H8.82854C8.82854 180.407 8.66009 180.04 8.33311 179.743C8.00612 179.446 7.61968 179.297 7.17379 179.297C6.73781 179.297 6.39101 179.446 6.12348 179.743C5.85594 180.04 5.72713 180.407 5.72713 180.853C5.72713 181.219 5.84604 181.546 6.07393 181.814C6.35138 182.121 6.84681 182.399 7.57014 182.636C8.42229 182.924 8.91772 183.112 9.07626 183.181C9.5816 183.399 10.0374 183.677 10.4337 183.994C11.4742 184.816 11.9894 185.936 11.9894 187.343C11.9894 188.641 11.5237 189.741 10.5824 190.643C9.64105 191.544 8.52137 192 7.20352 192C5.93521 192 4.83535 191.564 3.87421 190.692C2.91307 189.82 2.45728 188.76 2.45728 187.501Z" fill="white"/>
<path d="M19.0842 180.258C20.6894 180.258 22.0468 180.833 23.1764 181.992C23.7412 182.567 24.1673 183.201 24.4447 183.885C24.7222 184.569 24.8609 185.332 24.8609 186.154C24.8609 187.769 24.2862 189.156 23.1269 190.296C21.9676 191.435 20.5903 192.01 18.9652 192.01C17.3799 192.01 16.0026 191.435 14.8532 190.286C13.7038 189.136 13.1191 187.759 13.1191 186.154C13.1191 184.509 13.7038 183.112 14.8631 181.972C16.0224 180.823 17.4294 180.258 19.0842 180.258ZM18.9652 182.844C18.777 182.844 18.5689 182.864 18.3608 182.914C18.1527 182.963 17.9447 183.033 17.7366 183.132C17.3402 183.31 16.9835 183.548 16.6863 183.845C16.389 184.142 16.1611 184.499 16.0026 184.896C15.844 185.292 15.7747 185.708 15.7747 186.154C15.7747 187.056 16.0818 187.829 16.6962 188.463C17.3105 189.097 18.0636 189.424 18.9553 189.424C19.8768 189.424 20.6497 189.117 21.2641 188.482C21.8784 187.858 22.1955 187.085 22.1955 186.154C22.1955 185.232 21.8784 184.45 21.2541 183.806C20.6398 183.162 19.8669 182.844 18.9652 182.844Z" fill="white"/>
<path d="M26.3572 191.643V176.929H29.0028V191.643H26.3572Z" fill="white"/>
<path d="M38.3068 180.605H40.9524V191.643H38.5248V190.464C38.2473 190.97 37.8609 191.356 37.3655 191.614C36.87 191.871 36.3151 192 35.681 192C34.9973 192 34.3631 191.871 33.7785 191.624C33.184 191.376 32.6688 190.999 32.213 190.514C31.7572 190.028 31.4599 189.454 31.3014 188.8C31.2518 188.562 31.2122 188.284 31.1825 187.987C31.1527 187.68 31.1428 187.303 31.1428 186.848V180.615H33.7884V186.025C33.7884 186.481 33.8082 186.897 33.8479 187.284C33.8875 187.66 33.9767 187.997 34.1253 188.284C34.3037 188.631 34.5613 188.899 34.8982 189.107C35.2351 189.315 35.6116 189.414 36.0179 189.414C36.9097 189.414 37.5438 189.047 37.9104 188.314C38.178 187.769 38.3068 187.006 38.3068 186.015V180.605Z" fill="white"/>
<path d="M43.4891 191.643V182.963H42.1812V180.615H43.4891V176.939H46.1347V180.615H47.73V182.963H46.1347V191.643H43.4891Z" fill="white"/>
<path d="M49.0579 179.337V176.939H51.7035V179.337H49.0579ZM49.0579 191.643V180.605H51.7035V191.643H49.0579Z" fill="white"/>
<path d="M59.3232 180.258C60.9284 180.258 62.2859 180.833 63.4154 181.992C63.9802 182.567 64.4063 183.201 64.6837 183.885C64.9612 184.569 65.0999 185.332 65.0999 186.154C65.0999 187.769 64.5252 189.156 63.3659 190.296C62.2066 191.435 60.8293 192.01 59.2043 192.01C57.6189 192.01 56.2416 191.435 55.0922 190.286C53.9428 189.136 53.3582 187.759 53.3582 186.154C53.3582 184.509 53.9428 183.112 55.1021 181.972C56.2614 180.823 57.6684 180.258 59.3232 180.258ZM59.2043 182.844C59.016 182.844 58.8079 182.864 58.5998 182.914C58.3918 182.963 58.1837 183.033 57.9756 183.132C57.5792 183.31 57.2225 183.548 56.9253 183.845C56.628 184.142 56.4001 184.499 56.2416 184.896C56.083 185.292 56.0137 185.708 56.0137 186.154C56.0137 187.056 56.3208 187.829 56.9352 188.463C57.5495 189.097 58.3026 189.424 59.1944 189.424C60.1159 189.424 60.8887 189.117 61.5031 188.482C62.1174 187.858 62.4345 187.085 62.4345 186.154C62.4345 185.232 62.1174 184.45 61.4932 183.806C60.8689 183.162 60.1059 182.844 59.2043 182.844Z" fill="white"/>
<path d="M66.5959 191.643V180.605H69.0335V181.626C69.3803 181.18 69.8163 180.843 70.3612 180.605C70.9062 180.367 71.4809 180.258 72.0853 180.258C72.67 180.258 73.2348 180.377 73.7995 180.615C74.3544 180.853 74.83 181.19 75.2264 181.626L75.3948 181.794C75.4246 181.814 75.4642 181.864 75.5137 181.953C75.9002 182.478 76.1479 183.112 76.2668 183.855C76.3461 184.321 76.3857 185.014 76.3857 185.926V191.643H73.7401V186.441V186.203V186.015V185.857V185.728V185.619C73.7401 185.361 73.7203 185.173 73.6905 185.044C73.6311 184.509 73.5023 184.093 73.2942 183.786C73.096 183.479 72.8384 183.241 72.5213 183.072C72.2042 182.904 71.8674 182.825 71.5205 182.825C71.1737 182.825 70.8269 182.914 70.4702 183.092C70.1135 183.271 69.8559 183.508 69.6775 183.796C69.4992 184.083 69.3803 184.44 69.3208 184.876C69.2911 185.084 69.2713 185.302 69.2614 185.52C69.2515 185.738 69.2416 185.995 69.2416 186.293V186.63V191.633H66.5959V191.643Z" fill="white"/>
<path d="M85.5217 183.637H82.9356C82.8959 183.38 82.777 183.181 82.5888 183.043C82.4005 182.904 82.1726 182.835 81.9249 182.835C81.6375 182.835 81.3898 182.914 81.1917 183.082C80.9935 183.241 80.8845 183.469 80.8845 183.776C80.8845 184.083 81.0628 184.331 81.4295 184.519C81.5385 184.569 81.8555 184.678 82.3807 184.846C83.1635 185.084 83.7283 185.282 84.0553 185.45C84.6101 185.718 85.0263 186.055 85.3236 186.451C85.6605 186.927 85.8289 187.502 85.8289 188.195C85.8289 189.216 85.4623 190.098 84.7092 190.841C84.3525 191.188 83.9066 191.465 83.3914 191.673C82.8761 191.881 82.3609 191.99 81.8456 191.99C80.6962 191.99 79.745 191.633 78.982 190.92C78.2191 190.207 77.8425 189.295 77.8425 188.175H80.5476C80.6269 188.552 80.7755 188.839 81.0034 189.047C81.261 189.285 81.5781 189.404 81.9447 189.404C82.2816 189.404 82.569 189.315 82.8167 189.127C83.0545 188.938 83.1833 188.681 83.1833 188.344C83.1833 187.957 82.9554 187.64 82.5095 187.373C82.4302 187.323 82.3014 187.274 82.1132 187.204C81.9249 187.135 81.6574 187.046 81.3106 186.917C80.7557 186.739 80.399 186.61 80.2602 186.55C79.9333 186.412 79.6261 186.213 79.3189 185.956C78.6055 185.361 78.2488 184.588 78.2488 183.647C78.2488 182.656 78.6253 181.834 79.3784 181.18C80.0918 180.556 80.9638 180.248 81.9744 180.248C82.8959 180.248 83.7184 180.585 84.4417 181.249C85.165 181.923 85.5217 182.716 85.5217 183.637Z" fill="white"/>
</g>
<defs>
<linearGradient id="paint0_linear_545_1740" x1="-0.000132329" y1="44.0089" x2="91.4478" y2="44.0089" gradientUnits="userSpaceOnUse">
<stop stop-color="#FF4926"/>
<stop offset="1" stop-color="#FD0D66"/>
</linearGradient>
<linearGradient id="paint1_linear_545_1740" x1="1.66425" y1="87.2177" x2="52.4405" y2="87.2177" gradientUnits="userSpaceOnUse">
<stop stop-color="#FF4926"/>
<stop offset="1" stop-color="#FD0D66"/>
</linearGradient>
<linearGradient id="paint2_linear_545_1740" x1="0.0637411" y1="120.024" x2="19.2676" y2="120.024" gradientUnits="userSpaceOnUse">
<stop stop-color="#FF4926"/>
<stop offset="1" stop-color="#FD0D66"/>
</linearGradient>
<clipPath id="clip0_545_1740">
<rect width="91.447" height="192" fill="white"/>
</clipPath>
</defs>
</svg>
