<svg width="45" height="45" viewBox="0 0 45 45" fill="none" xmlns="http://www.w3.org/2000/svg">
<circle cx="22.5" cy="22.5" r="22.5" fill="white"/>
<path d="M27.0593 28.1375L29.1593 26.0375C29.4422 25.7582 29.8 25.567 30.1895 25.4871C30.5789 25.4072 30.9831 25.4421 31.3531 25.5875L33.9125 26.6094C34.2864 26.7612 34.6069 27.0202 34.8338 27.3539C35.0607 27.6876 35.1838 28.0809 35.1875 28.4844V33.1719C35.1853 33.4464 35.1276 33.7176 35.0178 33.9692C34.9081 34.2208 34.7486 34.4476 34.5489 34.6359C34.3492 34.8242 34.1134 34.9701 33.8558 35.065C33.5982 35.1598 33.3241 35.2015 33.05 35.1875C15.1156 34.0719 11.4968 18.8844 10.8125 13.0719C10.7807 12.7865 10.8097 12.4976 10.8976 12.2241C10.9856 11.9507 11.1304 11.699 11.3225 11.4856C11.5147 11.2722 11.7499 11.1019 12.0126 10.9858C12.2753 10.8698 12.5597 10.8108 12.8468 10.8125H17.375C17.779 10.8137 18.1735 10.9358 18.5077 11.163C18.8418 11.3902 19.1003 11.7122 19.25 12.0875L20.2718 14.6469C20.4221 15.0154 20.4604 15.42 20.382 15.8102C20.3037 16.2003 20.1121 16.5588 19.8312 16.8407L17.7312 18.9407C17.7312 18.9407 18.9406 27.125 27.0593 28.1375Z" fill="#202125"/>
</svg>
