<svg width="293" height="185" viewBox="0 0 293 185" fill="none" xmlns="http://www.w3.org/2000/svg">
<rect width="293" height="185" rx="23" fill="white"/>
<g clip-path="url(#clip0_479_1708)">
<path d="M147 60.398C151.495 60.398 155.139 56.7541 155.139 52.2591C155.139 47.7641 151.495 44.1201 147 44.1201C142.505 44.1201 138.861 47.7641 138.861 52.2591C138.861 56.7541 142.505 60.398 147 60.398Z" fill="#F25F00"/>
<path d="M147 141.797C151.495 141.797 155.139 138.154 155.139 133.658C155.139 129.163 151.495 125.52 147 125.52C142.505 125.52 138.861 129.163 138.861 133.658C138.861 138.154 142.505 141.797 147 141.797Z" fill="#F25F00"/>
<path d="M111.213 81.7154C115.708 81.7154 119.352 78.0715 119.352 73.5765C119.352 69.0814 115.708 65.4375 111.213 65.4375C106.718 65.4375 103.074 69.0814 103.074 73.5765C103.074 78.0715 106.718 81.7154 111.213 81.7154Z" fill="#F25F00"/>
<path d="M182.787 120.48C187.282 120.48 190.926 116.836 190.926 112.341C190.926 107.846 187.282 104.202 182.787 104.202C178.292 104.202 174.648 107.846 174.648 112.341C174.648 116.836 178.292 120.48 182.787 120.48Z" fill="#F25F00"/>
<path d="M111.142 120.348C115.637 120.348 119.281 116.704 119.281 112.209C119.281 107.714 115.637 104.07 111.142 104.07C106.647 104.07 103.003 107.714 103.003 112.209C103.003 116.704 106.647 120.348 111.142 120.348Z" fill="#F25F00"/>
<path d="M182.859 81.8473C187.354 81.8473 190.998 78.2033 190.998 73.7083C190.998 69.2133 187.354 65.5693 182.859 65.5693C178.364 65.5693 174.72 69.2133 174.72 73.7083C174.72 78.2033 178.364 81.8473 182.859 81.8473Z" fill="#F25F00"/>
<path d="M147.362 52.2588L182.816 73.6054V112.677L147.362 133.659L111.545 112.677V73.6054L147.362 52.2588Z" stroke="#F25F00" stroke-width="5.06479" stroke-miterlimit="10"/>
<path d="M167.063 101.039C168.016 98.6151 168.539 95.9804 168.539 93.2243C168.539 90.4075 167.993 87.7174 167 85.2516L184.149 75.9326L181.731 71.4843L164.563 80.8139C161.153 76.033 155.825 72.7093 149.714 71.9727V52.4424H144.648V71.9622C138.504 72.6749 133.145 75.9986 129.713 80.7928L112.607 71.5213L110.194 75.9722L127.271 85.2305C126.274 87.7015 125.724 90.3995 125.724 93.2243C125.724 96.0042 126.258 98.6652 127.227 101.105L110.212 110.35L112.63 114.798L129.642 105.553C133.069 110.402 138.46 113.771 144.648 114.486V133.84H149.714V114.476C155.883 113.731 161.253 110.352 164.661 105.497L181.755 114.761L184.168 110.31L167.063 101.039ZM149.714 109.365C148.871 109.5 148.011 109.568 147.132 109.568C146.287 109.568 145.458 109.505 144.648 109.381C140.376 108.726 136.641 106.411 134.127 103.116C133.108 101.778 132.29 100.278 131.72 98.6626C131.115 96.9598 130.788 95.1303 130.788 93.2243C130.788 91.2734 131.131 89.399 131.762 87.6619C132.345 86.0515 133.177 84.5573 134.209 83.2294C136.72 79.9902 140.421 77.7146 144.648 77.0678C145.458 76.9437 146.287 76.8804 147.132 76.8804C148.011 76.8804 148.871 76.949 149.714 77.0836C153.911 77.7516 157.581 80.0245 160.073 83.2532C161.102 84.5837 161.931 86.0806 162.512 87.691C163.135 89.4201 163.476 91.2839 163.476 93.2243C163.476 95.1066 163.156 96.9176 162.568 98.6019C162.003 100.22 161.189 101.722 160.176 103.063C157.681 106.361 153.969 108.686 149.714 109.365Z" fill="#F25F00"/>
<path d="M134.196 90.3299C134.355 89.7069 134.838 89.3294 135.281 88.9308C137.684 86.7713 140.458 85.3193 143.637 84.7438C149.194 83.7354 154.17 85.0289 158.505 88.6826C158.816 88.9466 159.117 89.2264 159.405 89.5168C159.851 89.9656 159.999 90.5015 159.777 91.1034C159.558 91.6922 159.115 92.0116 158.492 92.0644C158.022 92.104 157.639 91.9034 157.296 91.5918C156.821 91.1615 156.348 90.7207 155.839 90.3299C153.735 88.7222 151.361 87.7639 148.727 87.4709C145.244 87.0854 142.024 87.8326 139.075 89.7307C138.243 90.2666 137.488 90.8975 136.778 91.5839C136.229 92.1145 135.577 92.2149 134.967 91.8849C134.637 91.7054 134.413 91.4387 134.286 91.085C134.262 91.0163 134.225 90.953 134.196 90.887C134.196 90.6995 134.196 90.5147 134.196 90.3299Z" fill="#F25F00"/>
<path d="M147.251 89.2842C150.477 89.337 153.444 90.5302 155.918 92.9273C156.34 93.3365 156.52 93.8249 156.372 94.4057C156.229 94.9627 155.868 95.3244 155.313 95.4669C154.851 95.5857 154.413 95.5065 154.038 95.2003C153.632 94.8677 153.249 94.5034 152.832 94.1839C151.411 93.0936 149.796 92.4627 148.022 92.3016C145.223 92.0482 142.739 92.8296 140.611 94.6882C140.273 94.9812 139.983 95.3376 139.521 95.4617C138.909 95.6253 138.251 95.3904 137.895 94.8571C137.549 94.3397 137.56 93.6243 137.961 93.1491C138.55 92.4574 139.268 91.9056 140.02 91.4041C142.148 89.9943 144.492 89.3053 147.251 89.2842Z" fill="#F25F00"/>
<path d="M146.96 94.1611C149.159 94.1875 150.992 94.9346 152.52 96.4156C153.114 96.9912 153.135 97.8861 152.586 98.4933C152.063 99.0714 151.171 99.1374 150.553 98.6015C149.975 98.0999 149.381 97.6327 148.642 97.3951C146.86 96.8222 145.252 97.139 143.819 98.3481C143.592 98.5408 143.357 98.7467 143.088 98.8602C142.443 99.1322 141.707 98.8708 141.332 98.2874C140.954 97.7013 141.036 96.9304 141.551 96.4262C142.953 95.064 144.621 94.2958 146.583 94.1849C146.731 94.177 146.881 94.1664 146.96 94.1611Z" fill="#F25F00"/>
<path d="M149.555 101.955C149.553 103.352 148.436 104.474 147.042 104.476C145.651 104.479 144.529 103.362 144.518 101.963C144.51 100.564 145.656 99.413 147.045 99.4289C148.449 99.4447 149.558 100.561 149.555 101.955Z" fill="#F25F00"/>
</g>
<defs>
<clipPath id="clip0_479_1708">
<rect width="88" height="97.678" fill="white" transform="translate(103 44.1201)"/>
</clipPath>
</defs>
</svg>
